<svg xmlns="http://www.w3.org/2000/svg" xmlns:v="https://svgstorm.com"
viewBox = "0 0 240 240"
width="240"
height="240">
<g fill="None" fill-opacity="0.0" stroke="#E34540" stroke-opacity="1.00" stroke-width="0.3"><path d="
M 0.00 240.00 
L 240.00 240.00
L 240.00 0.00
L 0.00 0.00
L 0.00 240.00
M 148.00 36.00 
C 153.83 36.46 159.13 38.84 164.00 42.00
C 143.59 45.67 124.77 63.72 126.00 86.00
C 125.93 89.65 125.86 93.36 126.00 97.00
C 126.80 117.90 146.31 132.06 153.77 150.23 C 161.23 168.40 149.65 199.06 129.00 203.00
C 124.99 203.77 124.99 204.71 125.00 201.00
C 125.05 186.57 125.00 171.04 112.25 161.75 C 99.50 152.47 93.35 147.41 83.70 136.30 C 74.04 125.19 71.60 108.27 72.00 94.00 C 72.40 79.73 79.63 67.40 89.25 57.25 C 98.86 47.09 110.56 39.50 124.00 37.00
C 131.48 34.73 140.29 34.51 148.00 36.00
M 176.00 88.00 
C 175.59 90.28 175.71 93.69 176.00 96.00
C 179.87 111.64 198.14 120.47 198.93 138.07 C 199.72 155.68 197.50 175.81 184.25 188.25 C 171.00 200.69 153.45 206.29 136.00 203.00
C 152.73 195.98 162.24 183.95 165.78 165.78 C 169.32 147.61 152.54 131.33 149.00 115.00
C 148.58 112.44 148.59 110.51 149.00 108.00
C 149.85 90.95 164.61 70.60 184.00 77.00
C 182.56 80.80 176.06 82.93 176.00 88.00
M 65.00 99.00 
C 54.04 117.91 60.61 149.08 82.08 156.92 C 103.54 164.77 126.01 175.88 121.00 203.00
C 102.69 183.00 69.39 191.33 51.25 168.75 C 33.11 146.17 41.21 114.20 65.00 99.00 Z"/>
</g>
<g fill="None" fill-opacity="0.0" stroke="#EEA19F" stroke-opacity="1.00" stroke-width="0.3"><path d="
M 124.00 37.00 
C 131.44 35.62 140.19 35.38 148.00 36.00
C 140.29 34.51 131.48 34.73 124.00 37.00 Z"/>
</g>
<g fill="None" fill-opacity="0.0" stroke="#FEFDFD" stroke-opacity="1.00" stroke-width="0.3"><path d="
M 124.00 37.00 
C 110.56 39.50 98.86 47.09 89.25 57.25 C 79.63 67.40 72.40 79.73 72.00 94.00 C 71.60 108.27 74.04 125.19 83.70 136.30 C 93.35 147.41 99.50 152.47 112.25 161.75 C 125.00 171.04 125.05 186.57 125.00 201.00
C 125.82 203.26 126.37 202.96 129.00 203.00
C 149.65 199.06 161.23 168.40 153.77 150.23 C 146.31 132.06 126.80 117.90 126.00 97.00
C 125.48 93.35 125.57 89.56 126.00 86.00
C 124.77 63.72 143.59 45.67 164.00 42.00
C 159.13 38.84 153.83 36.46 148.00 36.00
C 140.19 35.38 131.44 35.62 124.00 37.00 Z"/>
</g>
<g fill="None" fill-opacity="0.0" stroke="#FEFCFC" stroke-opacity="1.00" stroke-width="0.3"><path d="
M 149.00 108.00 
C 148.89 110.29 148.89 112.71 149.00 115.00
C 152.54 131.33 169.32 147.61 165.78 165.78 C 162.24 183.95 152.73 195.98 136.00 203.00
C 153.45 206.29 171.00 200.69 184.25 188.25 C 197.50 175.81 199.72 155.68 198.93 138.07 C 198.14 120.47 179.87 111.64 176.00 96.00
C 175.25 92.98 175.05 91.01 176.00 88.00
C 176.06 82.93 182.56 80.80 184.00 77.00
C 164.61 70.60 149.85 90.95 149.00 108.00 Z"/>
</g>
<g fill="None" fill-opacity="0.0" stroke="#EEA6A5" stroke-opacity="1.00" stroke-width="0.3"><path d="
M 126.00 97.00 
C 125.86 93.36 125.93 89.65 126.00 86.00
C 125.57 89.56 125.48 93.35 126.00 97.00 Z"/>
</g>
<g fill="None" fill-opacity="0.0" stroke="#EC9A98" stroke-opacity="1.00" stroke-width="0.3"><path d="
M 176.00 96.00 
C 175.71 93.69 175.59 90.28 176.00 88.00
C 175.05 91.01 175.25 92.98 176.00 96.00 Z"/>
</g>
<g fill="None" fill-opacity="0.0" stroke="#FEFCFC" stroke-opacity="1.00" stroke-width="0.3"><path d="
M 65.00 99.00 
C 41.21 114.20 33.11 146.17 51.25 168.75 C 69.39 191.33 102.69 183.00 121.00 203.00
C 126.01 175.88 103.54 164.77 82.08 156.92 C 60.61 149.08 54.04 117.91 65.00 99.00 Z"/>
</g>
<g fill="None" fill-opacity="0.0" stroke="#ED9E9C" stroke-opacity="1.00" stroke-width="0.3"><path d="
M 149.00 115.00 
C 148.89 112.71 148.89 110.29 149.00 108.00
C 148.59 110.51 148.58 112.44 149.00 115.00 Z"/>
</g>
<g fill="None" fill-opacity="0.0" stroke="#EB9391" stroke-opacity="1.00" stroke-width="0.3"><path d="
M 129.00 203.00 
C 126.37 202.96 125.82 203.26 125.00 201.00
C 124.99 204.71 124.99 203.77 129.00 203.00 Z"/>
</g>
<g fill="#E34540" fill-opacity="1.00" stroke="None">
<path d="
M 0.00 240.00 
L 240.00 240.00
L 240.00 0.00
L 0.00 0.00
L 0.00 240.00
M 148.00 36.00 
C 153.83 36.46 159.13 38.84 164.00 42.00
C 143.59 45.67 124.77 63.72 126.00 86.00
C 125.93 89.65 125.86 93.36 126.00 97.00
C 126.80 117.90 146.31 132.06 153.77 150.23 C 161.23 168.40 149.65 199.06 129.00 203.00
C 124.99 203.77 124.99 204.71 125.00 201.00
C 125.05 186.57 125.00 171.04 112.25 161.75 C 99.50 152.47 93.35 147.41 83.70 136.30 C 74.04 125.19 71.60 108.27 72.00 94.00 C 72.40 79.73 79.63 67.40 89.25 57.25 C 98.86 47.09 110.56 39.50 124.00 37.00
C 131.48 34.73 140.29 34.51 148.00 36.00
M 176.00 88.00 
C 175.59 90.28 175.71 93.69 176.00 96.00
C 179.87 111.64 198.14 120.47 198.93 138.07 C 199.72 155.68 197.50 175.81 184.25 188.25 C 171.00 200.69 153.45 206.29 136.00 203.00
C 152.73 195.98 162.24 183.95 165.78 165.78 C 169.32 147.61 152.54 131.33 149.00 115.00
C 148.58 112.44 148.59 110.51 149.00 108.00
C 149.85 90.95 164.61 70.60 184.00 77.00
C 182.56 80.80 176.06 82.93 176.00 88.00
M 65.00 99.00 
C 54.04 117.91 60.61 149.08 82.08 156.92 C 103.54 164.77 126.01 175.88 121.00 203.00
C 102.69 183.00 69.39 191.33 51.25 168.75 C 33.11 146.17 41.21 114.20 65.00 99.00 Z"/>
</g>
<g fill="#EEA19F" fill-opacity="1.00" stroke="None">
<path d="
M 124.00 37.00 
C 131.44 35.62 140.19 35.38 148.00 36.00
C 140.29 34.51 131.48 34.73 124.00 37.00 Z"/>
</g>
<g fill="#FEFDFD" fill-opacity="1.00" stroke="None">
<path d="
M 124.00 37.00 
C 110.56 39.50 98.86 47.09 89.25 57.25 C 79.63 67.40 72.40 79.73 72.00 94.00 C 71.60 108.27 74.04 125.19 83.70 136.30 C 93.35 147.41 99.50 152.47 112.25 161.75 C 125.00 171.04 125.05 186.57 125.00 201.00
C 125.82 203.26 126.37 202.96 129.00 203.00
C 149.65 199.06 161.23 168.40 153.77 150.23 C 146.31 132.06 126.80 117.90 126.00 97.00
C 125.48 93.35 125.57 89.56 126.00 86.00
C 124.77 63.72 143.59 45.67 164.00 42.00
C 159.13 38.84 153.83 36.46 148.00 36.00
C 140.19 35.38 131.44 35.62 124.00 37.00 Z"/>
</g>
<g fill="#FEFCFC" fill-opacity="1.00" stroke="None">
<path d="
M 149.00 108.00 
C 148.89 110.29 148.89 112.71 149.00 115.00
C 152.54 131.33 169.32 147.61 165.78 165.78 C 162.24 183.95 152.73 195.98 136.00 203.00
C 153.45 206.29 171.00 200.69 184.25 188.25 C 197.50 175.81 199.72 155.68 198.93 138.07 C 198.14 120.47 179.87 111.64 176.00 96.00
C 175.25 92.98 175.05 91.01 176.00 88.00
C 176.06 82.93 182.56 80.80 184.00 77.00
C 164.61 70.60 149.85 90.95 149.00 108.00 Z"/>
</g>
<g fill="#EEA6A5" fill-opacity="1.00" stroke="None">
<path d="
M 126.00 97.00 
C 125.86 93.36 125.93 89.65 126.00 86.00
C 125.57 89.56 125.48 93.35 126.00 97.00 Z"/>
</g>
<g fill="#EC9A98" fill-opacity="1.00" stroke="None">
<path d="
M 176.00 96.00 
C 175.71 93.69 175.59 90.28 176.00 88.00
C 175.05 91.01 175.25 92.98 176.00 96.00 Z"/>
</g>
<g fill="#FEFCFC" fill-opacity="1.00" stroke="None">
<path d="
M 65.00 99.00 
C 41.21 114.20 33.11 146.17 51.25 168.75 C 69.39 191.33 102.69 183.00 121.00 203.00
C 126.01 175.88 103.54 164.77 82.08 156.92 C 60.61 149.08 54.04 117.91 65.00 99.00 Z"/>
</g>
<g fill="#ED9E9C" fill-opacity="1.00" stroke="None">
<path d="
M 149.00 115.00 
C 148.89 112.71 148.89 110.29 149.00 108.00
C 148.59 110.51 148.58 112.44 149.00 115.00 Z"/>
</g>
<g fill="#EB9391" fill-opacity="1.00" stroke="None">
<path d="
M 129.00 203.00 
C 126.37 202.96 125.82 203.26 125.00 201.00
C 124.99 204.71 124.99 203.77 129.00 203.00 Z"/>
</g>
</svg>